<svg xmlns="http://www.w3.org/2000/svg" width="19.991" height="20" viewBox="0 0 19.991 20">
  <g id="_1930264_check_complete_done_green_success_icon" data-name="1930264_check_complete_done_green_success_icon" transform="translate(-23 -22.9)">
    <path id="XMLID_3_" d="M42.991,32.9v-.03c0-.069,0-.137,0-.2,0-.039,0-.077,0-.12s0-.077,0-.116,0-.094-.009-.142c0-.03,0-.06,0-.09l-.013-.154c0-.021,0-.047,0-.069,0-.056-.013-.112-.017-.172,0-.013,0-.03,0-.043a10,10,0,0,0-19.863,0c0,.013,0,.03,0,.043,0,.056-.013.112-.017.172a.369.369,0,0,0,0,.069l-.013.154c0,.03,0,.06,0,.09,0,.047,0,.094-.009.142s0,.077,0,.116,0,.077,0,.12c0,.069,0,.137,0,.2v.069c0,.069,0,.137,0,.2,0,.039,0,.077,0,.12s0,.077,0,.116,0,.094.009.142c0,.03,0,.06,0,.09l.013.154c0,.021,0,.047,0,.069,0,.056.013.112.017.172,0,.013,0,.03,0,.043a10,10,0,0,0,19.863,0c0-.013,0-.03,0-.043,0-.056.013-.112.017-.172a.369.369,0,0,0,0-.069l.013-.154c0-.03,0-.06,0-.09,0-.047,0-.094.009-.142s0-.077,0-.116,0-.077,0-.12c0-.069,0-.137,0-.2V32.9Z" transform="translate(0 0)" fill="#7ec439"/>
    <g id="XMLID_1_" transform="translate(28.65 29.991)">
      <line id="XMLID_2_" y1="6.692" x2="6.697" transform="translate(2.527 0)" fill="none" stroke="#fff" stroke-miterlimit="10" stroke-width="2"/>
      <line id="XMLID_4_" x1="3.393" y1="3.393" transform="translate(0 3.342)" fill="none" stroke="#fff" stroke-miterlimit="10" stroke-width="2"/>
    </g>
  </g>
</svg>
